<svg width="25" height="16" viewBox="0 0 40 30" fill="none" xmlns="http://www.w3.org/2000/svg">
<path d="M37.1429 0H2.85714C2.09938 0 1.37266 0.31607 0.836838 0.87868C0.301019 1.44129 0 2.20435 0 3V27C0 27.7956 0.301019 28.5587 0.836838 29.1213C1.37266 29.6839 2.09938 30 2.85714 30H37.1429C37.9006 30 38.6273 29.6839 39.1632 29.1213C39.699 28.5587 40 27.7956 40 27V3C40 2.20435 39.699 1.44129 39.1632 0.87868C38.6273 0.31607 37.9006 0 37.1429 0V0ZM34 3L20 13.17L6 3H34ZM2.85714 27V4.365L19.1857 16.23C19.4249 16.4042 19.709 16.4975 20 16.4975C20.291 16.4975 20.5751 16.4042 20.8143 16.23L37.1429 4.365V27H2.85714Z" fill="#4A3AFF"/>
</svg>
